<?xml version="1.0" encoding="utf-8"?>
<!-- Generator: Adobe Illustrator 16.0.0, SVG Export Plug-In . SVG Version: 6.00 Build 0)  -->
<!DOCTYPE svg PUBLIC "-//W3C//DTD SVG 1.1//EN" "http://www.w3.org/Graphics/SVG/1.1/DTD/svg11.dtd">
<svg version="1.1" id="Layer_1" xmlns="http://www.w3.org/2000/svg" xmlns:xlink="http://www.w3.org/1999/xlink" x="0px" y="0px"
	 width="283.993px" height="327.465px" viewBox="0 0 283.993 327.465" enable-background="new 0 0 283.993 327.465"
	 xml:space="preserve">
<g>
	<g>
		<path fill="#137D76" d="M142.161,122.936v-0.002l-0.164,0.099l-0.165-0.099v0.002L6.204,42.924C3.462,41.306,0,43.283,0,46.467
			v195.542c0,1.456,0.77,2.804,2.024,3.543L29.3,261.643c2.743,1.618,6.205-0.358,6.205-3.543V108.227
			c0-3.185,3.462-5.162,6.204-3.543l98.197,57.931c1.29,0.761,2.892,0.761,4.181,0l98.197-57.931
			c2.743-1.619,6.204,0.358,6.204,3.543V258.1c0,3.185,3.462,5.161,6.205,3.543l27.276-16.091c1.254-0.739,2.023-2.087,2.023-3.543
			V46.467c0-3.184-3.462-5.161-6.204-3.543L142.161,122.936z"/>
		<path fill="#137D76" d="M210.971,287.442l-66.884,39.452c-1.29,0.761-2.891,0.761-4.181,0l-66.884-39.452
			c-1.255-0.739-2.024-2.088-2.024-3.544V170.391c0-3.184,3.462-5.161,6.204-3.544l27.266,16.083
			c1.254,0.74,2.024,2.088,2.024,3.543v77.342c0,1.456,0.77,2.804,2.024,3.544l31.391,18.513c1.289,0.761,2.89,0.761,4.18,0
			l31.379-18.507c1.255-0.739,2.024-2.087,2.024-3.543v-38.872l-0.724,0.428l-0.176,0.099l-28.39,16.756
			c-2.742,1.619-6.204-0.358-6.204-3.543v-31.271c0-1.456,0.77-2.804,2.022-3.543l62.771-37.036
			c2.743-1.618,6.205,0.358,6.205,3.543v113.517C212.995,285.354,212.226,286.703,210.971,287.442z"/>
		<path fill="#137D76" d="M205.858,44.101L179.021,59.93c-1.289,0.761-2.891,0.761-4.18,0l-30.754-18.14
			c-1.29-0.761-2.891-0.761-4.181,0l-30.754,18.14c-1.289,0.761-2.89,0.761-4.18,0L78.136,44.101
			c-2.699-1.592-2.699-5.495-0.001-7.087L139.906,0.57c1.29-0.761,2.892-0.761,4.181,0l61.771,36.443
			C208.557,38.605,208.557,42.509,205.858,44.101z"/>
	</g>
</g>
</svg>
